<?xml version="1.0" encoding="UTF-8"?>
<svg version="1.1" xmlns="http://www.w3.org/2000/svg" width="207" height="204">
<path d="M0 0 C68.31 0 136.62 0 207 0 C207 67.32 207 134.64 207 204 C138.69 204 70.38 204 0 204 C0 136.68 0 69.36 0 0 Z " fill="#FEFEFE" transform="translate(0,0)"/>
<path d="M0 0 C2.83439137 -0.10901505 5.66450203 -0.18777904 8.5 -0.25 C9.29148437 -0.28351562 10.08296875 -0.31703125 10.8984375 -0.3515625 C19.02804988 -0.48483483 25.11760195 2.59428321 31.1015625 7.99609375 C34.98878167 12.09926954 38.28304444 16.69559802 41.65869141 21.21923828 C43.87391262 24.16023273 46.15594701 27.04785719 48.4375 29.9375 C49.36334146 31.11323384 50.28912245 32.2890153 51.21484375 33.46484375 C51.67487793 34.04862793 52.13491211 34.63241211 52.60888672 35.23388672 C54.90874237 38.15371048 57.20415945 41.07701893 59.5 44 C60.4166451 45.16668361 61.33331177 46.33335027 62.25 47.5 C64.08333333 49.83333333 65.91666667 52.16666667 67.75 54.5 C68.20407227 55.07790283 68.65814453 55.65580566 69.12597656 56.2512207 C70.03941679 57.41379575 70.95282842 58.57639328 71.86621094 59.73901367 C74.20700377 62.71847036 76.54834581 65.69749287 78.890625 68.67578125 C79.36951172 69.28486328 79.84839844 69.89394531 80.34179688 70.52148438 C81.23874189 71.6622591 82.1358587 72.8028988 83.03320312 73.94335938 C83.8634444 74.99944681 84.68628878 76.0613995 85.50091553 77.12957764 C86.99368773 79.04470243 86.99368773 79.04470243 88.7699585 80.86956787 C94.42457658 87.18538368 94.96576365 92.11724518 94.71875 100.40234375 C94.71121704 101.56125626 94.70368408 102.72016876 94.69592285 103.91419983 C94.66356351 107.5898828 94.58190483 111.26262297 94.5 114.9375 C94.47344101 117.43291144 94.44997189 119.92835779 94.4296875 122.42382812 C94.37948483 126.96649804 94.32372337 131.50864725 94.22460938 136.05053711 C94.19627014 137.41546547 94.19627014 137.41546547 94.1673584 138.80796814 C94 141 94 141 93 143 C89.92716266 142.71496305 89.01947082 142.02154916 86.9140625 139.69140625 C86.15867187 138.65886719 85.40328125 137.62632812 84.625 136.5625 C83.74977725 135.38331271 82.8734067 134.20497677 81.99609375 133.02734375 C81.52155762 132.38522949 81.04702148 131.74311523 80.55810547 131.08154297 C77.66358477 127.21462296 74.66687389 123.42666226 71.6875 119.625 C69.96638205 117.42878917 68.25023043 115.23128371 66.56347656 113.00854492 C65.05440667 111.01592768 65.05440667 111.01592768 63.47558594 109.3293457 C58.88730093 103.98362183 59.65013292 98.68804997 59.875 91.9375 C59.83720974 81.46128526 58.37338495 75.60865606 51.1015625 68.11328125 C50.3266748 67.35072021 50.3266748 67.35072021 49.53613281 66.57275391 C46.93965664 63.91437827 44.75040471 60.95086449 42.5 58 C41.58521012 56.83186116 40.6685421 55.66519067 39.75 54.5 C23.25 33.5 23.25 33.5 21.87329102 31.74780273 C20.96234975 30.58843767 20.05137999 29.42909499 19.14038086 28.26977539 C16.76087385 25.24158315 14.38195531 22.2129311 12.00390625 19.18359375 C11.51148438 18.55646484 11.0190625 17.92933594 10.51171875 17.28320312 C9.57533586 16.09064001 8.63912577 14.89794118 7.703125 13.70507812 C5.74043966 11.20576733 3.77461843 8.7419324 1.68359375 6.34765625 C0 4 0 4 0 0 Z " fill="#8C58E8" transform="translate(28,37)"/>
<path d="M0 0 C32.34 0 64.68 0 98 0 C99 5 99 5 98.12646484 6.76660156 C97.65934082 7.3025293 97.1922168 7.83845703 96.7109375 8.390625 C96.18822266 9.00873047 95.66550781 9.62683594 95.12695312 10.26367188 C94.54880859 10.91916016 93.97066406 11.57464844 93.375 12.25 C92.16170028 13.68029117 90.95083357 15.11264917 89.7421875 16.546875 C89.11795898 17.28228516 88.49373047 18.01769531 87.85058594 18.77539062 C84.94996362 22.2622601 82.2268603 25.87672356 79.5 29.5 C75.17205088 35.21942708 70.7385304 40.83151041 66.1875 46.375 C61.2188346 52.42729283 56.49799363 58.58594262 52 65 C48.48109737 64.72547568 47.16515425 64.15876118 44.578125 61.671875 C43.80984375 60.70765625 43.0415625 59.7434375 42.25 58.75 C41.47140625 57.79609375 40.6928125 56.8421875 39.890625 55.859375 C36.9568165 51.42229272 36.9568165 51.42229272 37 48 C38.703125 45.4140625 38.703125 45.4140625 41.25 42.625 C45.42894293 37.9871343 49.2061188 33.14576528 52.859375 28.0859375 C53.35808105 27.40039795 53.85678711 26.7148584 54.37060547 26.00854492 C55.58310681 24.34099211 56.79194511 22.67077684 58 21 C56.70900391 21.04713135 55.41800781 21.0942627 54.08789062 21.14282227 C49.27271244 21.30640381 44.45777649 21.40928276 39.640625 21.49438477 C37.56077709 21.53949341 35.4812122 21.6008009 33.40234375 21.67895508 C16.12769243 22.31186256 16.12769243 22.31186256 10.93164062 19.1081543 C8.89452423 16.82625536 7.46704154 14.67305542 6 12 C4.85665651 10.54388083 3.69308412 9.10315096 2.5 7.6875 C0.10062987 4.64361821 0 4.17513365 0 0 Z " fill="#47ADFA" transform="translate(82,37)"/>
</svg>
